<svg width="20" height="17" viewBox="0 0 20 17" fill="none" xmlns="http://www.w3.org/2000/svg">
<path d="M11.1496 16.1658C10.3697 16.9439 9.11094 16.9419 8.33061 16.1643C6.45503 14.2951 3.22734 11.0773 1.93806 9.78426C0.872152 8.7163 0.264148 7.43853 0.275548 5.90937C0.279238 3.64676 1.81215 1.66956 4.01098 1.09127C5.88819 0.603602 7.5602 1.03457 8.97191 2.3766C9.23031 2.62233 9.46022 2.89829 9.74522 3.2045C10.015 2.9172 10.2259 2.68092 10.452 2.44843C11.6281 1.2343 13.3325 0.678857 15.0028 0.965442C16.673 1.25203 18.0919 2.34338 18.7912 3.8793C19.6576 5.75626 19.3213 7.54816 18.1015 9.18885C17.9845 9.34283 13.5014 13.8198 11.1496 16.1658Z" fill="#C3D7FF"/>
</svg>
