<svg width="13" height="20" viewBox="0 0 13 20" fill="none" xmlns="http://www.w3.org/2000/svg">
<path fill-rule="evenodd" clip-rule="evenodd" d="M5.72887 7.77075V12.1993C5.72887 12.6135 6.06466 12.9493 6.47887 12.9493C6.89308 12.9493 7.22887 12.6135 7.22887 12.1993V7.77075H11C12.1046 7.77075 13 8.66618 13 9.77075V17.7708C13 18.8753 12.1046 19.7708 11 19.7708H2C0.89543 19.7708 0 18.8753 0 17.7708V9.77075C0 8.66618 0.895431 7.77075 2 7.77075H5.72887Z" fill="#C3D7FF"/>
<path fill-rule="evenodd" clip-rule="evenodd" d="M5.99443 0.225763C6.27897 -0.0752541 6.7403 -0.0752542 7.02483 0.225762L10.8059 4.22576C11.0904 4.52678 11.0904 5.01482 10.8059 5.31584C10.5213 5.61686 10.06 5.61686 9.77546 5.31584L7.22887 2.62177L7.22887 7.77075H5.72887L5.72887 2.68686L3.24381 5.31584C2.95927 5.61686 2.49794 5.61686 2.2134 5.31584C1.92887 5.01482 1.92887 4.52678 2.2134 4.22576L5.99443 0.225763Z" fill="#C3D7FF"/>
</svg>
