<svg width="24" height="24" viewBox="0 0 24 24" fill="none" xmlns="http://www.w3.org/2000/svg">
<path d="M12 22C17.523 22 22 17.523 22 12C22 6.477 17.523 2 12 2C6.477 2 2 6.477 2 12C2 17.523 6.477 22 12 22Z" stroke="#C3D7FF" stroke-width="1.5" stroke-linecap="round" stroke-linejoin="round"/>
<path d="M8.5 9C8.36739 9 8.24021 8.94732 8.14645 8.85355C8.05268 8.75979 8 8.63261 8 8.5C8 8.36739 8.05268 8.24021 8.14645 8.14645C8.24021 8.05268 8.36739 8 8.5 8C8.63261 8 8.75979 8.05268 8.85355 8.14645C8.94732 8.24021 9 8.36739 9 8.5C9 8.63261 8.94732 8.75979 8.85355 8.85355C8.75979 8.94732 8.63261 9 8.5 9ZM12 17C11.7348 17 11.4804 16.8946 11.2929 16.7071C11.1054 16.5196 11 16.2652 11 16C11 15.7348 11.1054 15.4804 11.2929 15.2929C11.4804 15.1054 11.7348 15 12 15C12.2652 15 12.5196 15.1054 12.7071 15.2929C12.8946 15.4804 13 15.7348 13 16C13 16.2652 12.8946 16.5196 12.7071 16.7071C12.5196 16.8946 12.2652 17 12 17ZM15.5 9C15.3674 9 15.2402 8.94732 15.1464 8.85355C15.0527 8.75979 15 8.63261 15 8.5C15 8.36739 15.0527 8.24021 15.1464 8.14645C15.2402 8.05268 15.3674 8 15.5 8C15.6326 8 15.7598 8.05268 15.8536 8.14645C15.9473 8.24021 16 8.36739 16 8.5C16 8.63261 15.9473 8.75979 15.8536 8.85355C15.7598 8.94732 15.6326 9 15.5 9Z" fill="#C3D7FF" stroke="#C3D7FF" stroke-width="1.5" stroke-linecap="round" stroke-linejoin="round"/>
</svg>
