<svg width="119" height="132" viewBox="0 0 119 132" fill="none" xmlns="http://www.w3.org/2000/svg">
    <path d="M114.399 97.6804L115.856 97.3272L115.856 97.327L114.399 97.6804ZM115.941 104.048L114.483 104.401L114.484 104.401L115.941 104.048ZM2.5417 104.048L3.99946 104.401L3.99952 104.401L2.5417 104.048ZM4.08437 97.6804L2.6266 97.327L2.62655 97.3272L4.08437 97.6804ZM59.2473 0.289062C41.4111 0.289062 26.8267 14.0741 26.8267 31.2331H29.8267C29.8267 15.8676 42.9279 3.28906 59.2473 3.28906V0.289062ZM26.8267 31.2331C26.8267 48.3921 41.4111 62.1771 59.2473 62.1771V59.1771C42.9279 59.1771 29.8267 46.5986 29.8267 31.2331H26.8267ZM59.2473 62.1771C77.0835 62.1771 91.6678 48.3921 91.6678 31.2331H88.6678C88.6678 46.5986 75.5666 59.1771 59.2473 59.1771V62.1771ZM91.6678 31.2331C91.6678 14.0741 77.0835 0.289062 59.2473 0.289062V3.28906C75.5666 3.28906 88.6678 15.8676 88.6678 31.2331H91.6678ZM35.4771 75.4011H83.0033V72.4011H35.4771V75.4011ZM83.0033 75.4011C97.3617 75.4011 109.74 84.8324 112.941 98.0338L115.856 97.327C112.308 82.6909 98.6524 72.4011 83.0033 72.4011V75.4011ZM112.941 98.0336L114.483 104.401L117.399 103.694L115.856 97.3272L112.941 98.0336ZM114.484 104.401C117.473 116.729 107.647 128.67 94.1194 128.67V131.67C109.397 131.67 120.89 118.094 117.399 103.694L114.484 104.401ZM94.1194 128.67H24.3636V131.67H94.1194V128.67ZM24.3636 128.67C10.836 128.67 1.01044 116.729 3.99946 104.401L1.08393 103.694C-2.40732 118.094 9.086 131.67 24.3636 131.67V128.67ZM3.99952 104.401L5.5422 98.0336L2.62655 97.3272L1.08387 103.694L3.99952 104.401ZM5.54215 98.0338C8.74253 84.8324 21.1214 75.4011 35.4771 75.4011V72.4011C19.8305 72.4011 6.17477 82.6909 2.6266 97.327L5.54215 98.0338Z" fill="black"/>
</svg>
