<svg width="32" height="25" viewBox="0 0 32 25" fill="none" xmlns="http://www.w3.org/2000/svg">
    <path fill-rule="evenodd" clip-rule="evenodd" d="M21.392 10.4198L19.0313 12.7211L19.5889 15.9698C19.641 16.2735 19.4365 16.5625 19.1327 16.6145C19.0116 16.6352 18.8873 16.6156 18.7785 16.5587L15.8607 15.0244L12.9428 16.5587C12.6698 16.7021 12.3321 16.597 12.1887 16.324C12.1319 16.2156 12.1117 16.0908 12.1329 15.9698L12.69 12.7211L10.3293 10.4198C10.1084 10.2047 10.1041 9.85104 10.3192 9.6301C10.4053 9.54247 10.5173 9.48512 10.639 9.46759L13.9009 8.99333L15.3598 6.03727C15.4963 5.7611 15.8314 5.64744 16.1076 5.78394C16.2181 5.83811 16.3073 5.92733 16.3615 6.03727L17.8204 8.99333L21.0823 9.46759C21.3877 9.51167 21.5991 9.79527 21.555 10.1001C21.537 10.2217 21.4801 10.3343 21.392 10.4198ZM31.026 6.8833V3.5953C31.026 2.00734 29.7386 0.719971 28.1512 0.719971H3.57065C1.98268 0.719971 0.695312 2.00734 0.695312 3.5953V6.8833C3.06558 6.8833 4.98654 8.80426 4.98654 11.1745C4.98654 13.5443 3.06558 15.4652 0.695312 15.4652V18.7537C0.695312 20.3417 1.98268 21.6285 3.57065 21.6285H28.1512C29.7386 21.6285 31.026 20.3417 31.026 18.7537V15.4652C28.6563 15.4652 26.7348 13.5443 26.7348 11.1745C26.7348 8.80426 28.6563 6.8833 31.026 6.8833Z" fill="#8F8F8F"/>
</svg>
