<svg width="25" height="25" viewBox="0 0 27 27" fill="none" xmlns="http://www.w3.org/2000/svg">
    <path fill-rule="evenodd" clip-rule="evenodd" d="M15.41 13.6218C15.41 14.6765 14.555 15.5321 13.4997 15.5321C12.4449 15.5321 11.5899 14.6765 11.5899 13.6218C11.5899 12.567 12.4449 11.7115 13.4997 11.7115C14.555 11.7115 15.41 12.567 15.41 13.6218ZM18.6369 19.8648L10.9106 17.1143C10.4894 16.9645 10.1575 16.6326 10.0072 16.2109L7.25669 8.48454C7.01185 7.7973 7.67519 7.13397 8.36295 7.3788L16.0888 10.1293C16.5104 10.2791 16.8424 10.611 16.9927 11.0327L19.7432 18.759C19.988 19.4463 19.3247 20.1096 18.6369 19.8648ZM13.5002 0.741211C6.38623 0.741211 0.619629 6.50834 0.619629 13.6218C0.619629 20.7358 6.38623 26.5024 13.5002 26.5024C20.6137 26.5024 26.3803 20.7358 26.3803 13.6218C26.3803 6.50834 20.6137 0.741211 13.5002 0.741211Z" fill="#8F8F8F"/>
</svg>
