<svg width="26" height="25" viewBox="0 0 26 25" fill="none" xmlns="http://www.w3.org/2000/svg">
    <path fill-rule="evenodd" clip-rule="evenodd" d="M21.1835 7.08883C21.1835 7.79624 20.6099 8.37035 19.902 8.37035H17.1424C16.435 8.37035 15.8614 7.79624 15.8614 7.08883V6.99588C15.8614 6.28847 16.435 5.71489 17.1424 5.71489H19.902C20.6099 5.71489 21.1835 6.28847 21.1835 6.99588V7.08883ZM21.1835 12.9377C21.1835 13.6457 20.6099 14.2193 19.902 14.2193H17.1424C16.435 14.2193 15.8614 13.6457 15.8614 12.9377V12.8448C15.8614 12.1374 16.435 11.5638 17.1424 11.5638H19.902C20.6099 11.5638 21.1835 12.1374 21.1835 12.8448V12.9377ZM19.8558 20.0682H6.79726C6.06436 20.0682 5.46953 19.4739 5.46953 18.7405C5.46953 18.007 6.06436 17.4127 6.79726 17.4127H19.8558C20.5892 17.4127 21.1835 18.007 21.1835 18.7405C21.1835 19.4739 20.5892 20.0682 19.8558 20.0682ZM5.46953 7.1021C5.46953 6.33574 6.09091 5.71489 6.85674 5.71489H11.1735C11.9398 5.71489 12.5607 6.33574 12.5607 7.1021V12.8528C12.5607 13.6191 11.9398 14.24 11.1735 14.24H6.85674C6.09091 14.24 5.46953 13.6191 5.46953 12.8528V7.1021ZM22.2271 0.741211H4.42594C2.49117 0.741211 0.922852 2.30953 0.922852 4.2443V20.8935C0.922852 22.8283 2.49117 24.3966 4.42594 24.3966H22.2271C24.1619 24.3966 25.7302 22.8283 25.7302 20.8935V4.2443C25.7302 2.30953 24.1619 0.741211 22.2271 0.741211Z" fill="#8F8F8F"/>
</svg>
