<svg width="29" height="25" viewBox="0 0 29 25" fill="none" xmlns="http://www.w3.org/2000/svg">
    <path fill-rule="evenodd" clip-rule="evenodd" d="M21.0035 9.39388L14.522 15.5758C14.2788 15.8074 13.9665 15.9231 13.6547 15.9231C13.3271 15.9231 13.0004 15.7962 12.754 15.5429L8.96838 11.6569C8.48402 11.1592 8.49411 10.3637 8.99175 9.8793C9.48885 9.39494 10.2844 9.40503 10.7693 9.90267L13.6871 12.8975L19.2679 7.57436C19.7708 7.09425 20.5664 7.11443 21.0454 7.61631C21.5245 8.11926 21.5059 8.91484 21.0035 9.39388ZM26.599 3.04733C23.6658 0.114107 18.9104 0.114107 15.9777 3.04733L14.7281 4.29646L13.4789 3.04733C10.5463 0.114107 5.79085 0.114107 2.85763 3.04733C-0.0755907 5.98002 -0.0755907 10.7354 2.85763 13.6686L12.9633 23.7743C13.4508 24.2618 14.0897 24.504 14.7281 24.5024C15.367 24.504 16.0059 24.2618 16.4934 23.7743L26.599 13.6686C29.5323 10.7354 29.5323 5.98002 26.599 3.04733Z" fill="#8F8F8F"/>
</svg>
