<svg width="23" height="25" viewBox="0 0 23 25" fill="none" xmlns="http://www.w3.org/2000/svg">
    <path fill-rule="evenodd" clip-rule="evenodd" d="M11.4328 0.335205C8.21115 0.335205 5.59977 2.94659 5.59977 6.16819C5.59977 9.3898 8.21115 12.0012 11.4328 12.0012C14.6544 12.0012 17.2657 9.3898 17.2657 6.16819C17.2657 2.94659 14.6544 0.335205 11.4328 0.335205ZM18.0119 24.9492H4.85358C2.13651 24.9492 0.125798 22.4212 0.737085 19.7742L1.02812 18.5129C1.66437 15.7555 4.12014 13.8021 6.95033 13.8021H7.29448L9.80389 16.3121C10.7036 17.2112 12.1619 17.2112 13.0611 16.3121L15.571 13.8021H15.9152C18.7454 13.8021 21.2011 15.7555 21.8374 18.5129L22.1284 19.7742C22.7397 22.4212 20.729 24.9492 18.0119 24.9492Z" fill="#8F8F8F"/>
</svg>
