<svg width="24" height="24" viewBox="0 0 24 24" fill="none" xmlns="http://www.w3.org/2000/svg">
<path d="M21.12 9.8799L14.12 2.8799C13.5477 2.33689 12.7889 2.03418 12 2.03418C11.2111 2.03418 10.4523 2.33689 9.87998 2.8799L2.87998 9.8799C2.31818 10.4424 2.00262 11.2049 2.00262 11.9999C2.00262 12.7949 2.31818 13.5574 2.87998 14.1199L9.87998 21.1199C10.4425 21.6817 11.205 21.9973 12 21.9973C12.795 21.9973 13.5575 21.6817 14.12 21.1199L21.12 14.1199C21.6818 13.5574 21.9973 12.7949 21.9973 11.9999C21.9973 11.2049 21.6818 10.4424 21.12 9.8799V9.8799ZM19.71 12.7099L12.71 19.7099C12.617 19.8036 12.5064 19.878 12.3846 19.9288C12.2627 19.9796 12.132 20.0057 12 20.0057C11.868 20.0057 11.7373 19.9796 11.6154 19.9288C11.4935 19.878 11.3829 19.8036 11.29 19.7099L4.28998 12.7099C4.19626 12.6169 4.12186 12.5063 4.07109 12.3845C4.02032 12.2626 3.99419 12.1319 3.99419 11.9999C3.99419 11.8679 4.02032 11.7372 4.07109 11.6153C4.12186 11.4935 4.19626 11.3829 4.28998 11.2899L11.29 4.2899C11.3829 4.19617 11.4935 4.12178 11.6154 4.07101C11.7373 4.02024 11.868 3.9941 12 3.9941C12.132 3.9941 12.2627 4.02024 12.3846 4.07101C12.5064 4.12178 12.617 4.19617 12.71 4.2899L19.71 11.2899C19.8037 11.3829 19.8781 11.4935 19.9289 11.6153C19.9796 11.7372 20.0058 11.8679 20.0058 11.9999C20.0058 12.1319 19.9796 12.2626 19.9289 12.3845C19.8781 12.5063 19.8037 12.6169 19.71 12.7099ZM14.21 9.2899C14.0217 9.1016 13.7663 8.99581 13.5 8.99581C13.2337 8.99581 12.9783 9.1016 12.79 9.2899C12.6017 9.4782 12.4959 9.7336 12.4959 9.9999C12.4959 10.2662 12.6017 10.5216 12.79 10.7099L13.09 10.9999H9.49998C9.23477 10.9999 8.98041 11.1053 8.79288 11.2928C8.60534 11.4803 8.49998 11.7347 8.49998 11.9999V13.9999C8.49998 14.2651 8.60534 14.5195 8.79288 14.707C8.98041 14.8945 9.23477 14.9999 9.49998 14.9999C9.7652 14.9999 10.0196 14.8945 10.2071 14.707C10.3946 14.5195 10.5 14.2651 10.5 13.9999V12.9999H13.09L12.79 13.2899C12.6963 13.3829 12.6219 13.4935 12.5711 13.6153C12.5203 13.7372 12.4942 13.8679 12.4942 13.9999C12.4942 14.1319 12.5203 14.2626 12.5711 14.3845C12.6219 14.5063 12.6963 14.6169 12.79 14.7099C12.8829 14.8036 12.9935 14.878 13.1154 14.9288C13.2373 14.9796 13.368 15.0057 13.5 15.0057C13.632 15.0057 13.7627 14.9796 13.8846 14.9288C14.0064 14.878 14.117 14.8036 14.21 14.7099L16.21 12.7099C16.3037 12.6169 16.3781 12.5063 16.4289 12.3845C16.4796 12.2626 16.5058 12.1319 16.5058 11.9999C16.5058 11.8679 16.4796 11.7372 16.4289 11.6153C16.3781 11.4935 16.3037 11.3829 16.21 11.2899L14.21 9.2899Z" fill="black"/>
</svg>
