<svg width="24" height="24" viewBox="0 0 24 24" fill="none" xmlns="http://www.w3.org/2000/svg">
<path d="M5 11H13V13H5V16L0 12L5 8V11ZM4 18H6.708C7.86269 19.0183 9.28669 19.6819 10.8091 19.9109C12.3316 20.14 13.8878 19.9249 15.291 19.2915C16.6942 18.6581 17.8849 17.6332 18.7201 16.3398C19.5553 15.0465 19.9995 13.5396 19.9995 12C19.9995 10.4604 19.5553 8.95354 18.7201 7.66019C17.8849 6.36683 16.6942 5.34194 15.291 4.7085C13.8878 4.07506 12.3316 3.85997 10.8091 4.08906C9.28669 4.31814 7.86269 4.98166 6.708 6H4C5.25929 4.32094 7.01497 3.08067 9.01832 2.45486C11.0217 1.82906 13.1712 1.84946 15.1623 2.51317C17.1534 3.17687 18.8852 4.45024 20.1124 6.1529C21.3396 7.85555 22 9.90118 22 12C22 14.0988 21.3396 16.1444 20.1124 17.8471C18.8852 19.5498 17.1534 20.8231 15.1623 21.4868C13.1712 22.1505 11.0217 22.1709 9.01832 21.5451C7.01497 20.9193 5.25929 19.6791 4 18Z" fill="#AAB2BA"/>
</svg>
