<svg width="20" height="16" viewBox="0 0 20 16" fill="none" xmlns="http://www.w3.org/2000/svg">
<g clip-path="url(#clip0_329_266)">
<path d="M4.70955 2.89924C6.09393 1.82111 7.86893 1.00018 10.0002 1.00018C12.5252 1.00018 14.5471 2.15143 16.0189 3.51893C17.4814 4.87518 18.4596 6.47205 18.9221 7.6158C19.0252 7.86268 19.0252 8.13768 18.9221 8.38455C18.5033 9.39393 17.6627 10.8158 16.4252 12.0846L19.7127 14.6596C20.0377 14.9158 20.0971 15.3877 19.8408 15.7127C19.5846 16.0377 19.1127 16.0971 18.7877 15.8408L0.287553 1.34049C-0.0384475 1.08486 -0.0956038 0.613615 0.159927 0.287553C0.41549 -0.0384475 0.88674 -0.0956038 1.21299 0.159927L4.70955 2.89924ZM6.97205 4.67205L9.79393 6.88455C9.92518 6.61893 10.0002 6.31893 10.0002 5.97205C10.0002 5.6408 9.8783 5.3033 9.73768 5.01268C9.82518 5.0033 9.91268 4.97205 10.0002 4.97205C11.6564 4.97205 13.0002 6.3158 13.0002 7.97205C13.0002 8.4283 12.9096 8.83455 12.7221 9.2033L13.9564 10.1471C14.3033 9.50955 14.5002 8.7783 14.5002 7.97205C14.5002 5.5158 12.4846 3.47205 10.0002 3.47205C8.83455 3.47205 7.76893 3.94393 6.97205 4.67205ZM10.0002 15.0002C7.47518 15.0002 5.4533 13.8502 3.98143 12.4814C2.51955 11.0971 1.54205 9.50018 1.07705 8.38455C0.974552 8.13768 0.974552 7.86268 1.07705 7.6158C1.37518 6.90018 1.88424 5.97518 2.59674 5.04705L5.54393 7.36893C5.5158 7.57518 5.50018 7.78455 5.50018 7.97205C5.50018 10.4846 7.5158 12.5002 10.0002 12.5002C10.5846 12.5002 11.1439 12.3877 11.6564 12.1846L13.9439 13.9846C12.8096 14.5971 11.4939 15.0002 10.0002 15.0002Z" fill="#969696"/>
</g>
<defs>
<clipPath id="clip0_329_266">
<rect width="20" height="16" fill="white"/>
</clipPath>
</defs>
</svg>
