<svg width="18" height="16" viewBox="0 0 18 16" fill="none" xmlns="http://www.w3.org/2000/svg">
<g clip-path="url(#clip0_329_86)">
<path d="M8.7375 5.0125C8.825 5.00312 8.9125 5 9 5C10.6562 5 12 6.31563 12 8C12 9.65625 10.6562 11 9 11C7.31563 11 6 9.65625 6 8C6 7.9125 6.00312 7.825 6.0125 7.7375C6.30312 7.87813 6.64062 8 7 8C8.10312 8 9 7.10313 9 6C9 5.64062 8.87813 5.30312 8.7375 5.0125ZM15.0188 3.51875C16.4813 4.875 17.4594 6.47188 17.9219 7.61562C18.025 7.8625 18.025 8.1375 17.9219 8.38437C17.4594 9.5 16.4813 11.0969 15.0188 12.4812C13.5469 13.85 11.525 15 9 15C6.475 15 4.45312 13.85 2.98187 12.4812C1.51937 11.0969 0.541875 9.5 0.0769063 8.38437C-0.0256405 8.1375 -0.0256405 7.8625 0.0769063 7.61562C0.541875 6.47188 1.51937 4.875 2.98187 3.51875C4.45312 2.15125 6.475 1 9 1C11.525 1 13.5469 2.15125 15.0188 3.51875ZM9 3.5C6.51562 3.5 4.5 5.51562 4.5 8C4.5 10.4844 6.51562 12.5 9 12.5C11.4844 12.5 13.5 10.4844 13.5 8C13.5 5.51562 11.4844 3.5 9 3.5Z" fill="#969696"/>
</g>
<defs>
<clipPath id="clip0_329_86">
<rect width="18" height="16" fill="white"/>
</clipPath>
</defs>
</svg>
