<svg xmlns="http://www.w3.org/2000/svg" width="25.803" height="22.915" viewBox="0 0 25.803 22.915">
  <path id="noun-love-4606122" d="M130.025,102.577a1.243,1.243,0,0,1-.882-.361l-9.42-9.458a7.087,7.087,0,0,1,10.029-10.017l.261.273.249-.261a7.146,7.146,0,0,1,12.191,5.083,6.984,6.984,0,0,1-2.075,4.971L137.3,95.891a1.243,1.243,0,1,1-1.752-1.765l3.082-3.082h0a4.512,4.512,0,0,0,1.342-3.206,4.586,4.586,0,0,0-1.38-3.293,4.647,4.647,0,0,0-6.549,0,4.479,4.479,0,0,0-.882,1.243,1.242,1.242,0,0,1-2.237.012,4.648,4.648,0,0,0-7.457-1.3,4.548,4.548,0,0,0-1.38,3.206,4.623,4.623,0,0,0,1.367,3.293l8.575,8.587,2.175-2.175a1.243,1.243,0,0,1,1.752,1.765l-3,3.045a1.243,1.243,0,0,1-.932.361Z" transform="translate(-117.15 -80.163)" fill="#262730" stroke="#fff" stroke-width="1"/>
</svg>
