<svg width="32" height="32" viewBox="0 0 32 32" fill="none" xmlns="http://www.w3.org/2000/svg">
<mask id="mask0_3009_11994" style="mask-type:alpha" maskUnits="userSpaceOnUse" x="0" y="0" width="32" height="32">
<path fill-rule="evenodd" clip-rule="evenodd" d="M0 0H32V32H0V0Z" fill="white"/>
</mask>
<g mask="url(#mask0_3009_11994)">
<path fill-rule="evenodd" clip-rule="evenodd" d="M32 16.0978C32 7.20722 24.8366 0 16 0C7.16344 0 0 7.20722 0 16.0978C0 24.1327 5.85097 30.7924 13.5 32V20.751H9.4375V16.0978H13.5V12.5512C13.5 8.51673 15.8887 6.2882 19.5434 6.2882C21.294 6.2882 23.125 6.60261 23.125 6.60261V10.5642H21.1074C19.1198 10.5642 18.5 11.805 18.5 13.0781V16.0978H22.9375L22.2281 20.751H18.5V32C26.149 30.7924 32 24.1327 32 16.0978Z" fill="#1877F2"/>
</g>
<path fill-rule="evenodd" clip-rule="evenodd" d="M22.0826 20.5146L22.8082 15.8447H18.2694V12.8142C18.2694 11.5366 18.9034 10.2913 20.9364 10.2913H23V6.31553C23 6.31553 21.1272 6 19.3367 6C15.5985 6 13.1553 8.23651 13.1553 12.2854V15.8447H9V20.5146H13.1553V31.8037C13.9884 31.9328 14.8424 32 15.7123 32C16.5822 32 17.4362 31.9328 18.2694 31.8037V20.5146H22.0826Z" fill="white"/>
</svg>
