<svg width="25" height="24" viewBox="0 0 25 24" fill="none" xmlns="http://www.w3.org/2000/svg">
<path d="M12.5 16.5C14.9853 16.5 17 14.4853 17 12C17 9.51472 14.9853 7.5 12.5 7.5C10.0147 7.5 8 9.51472 8 12C8 14.4853 10.0147 16.5 12.5 16.5Z" stroke="#333132" stroke-width="2" stroke-linecap="round" stroke-linejoin="round"/>
<path d="M17.7223 6.10352C17.9598 6.32227 18.1848 6.54727 18.3973 6.77852L20.9566 7.14414C21.3737 7.86836 21.6951 8.64357 21.9129 9.45039L20.3566 11.5223C20.3566 11.5223 20.3848 12.1598 20.3566 12.4785L21.9129 14.5504C21.6961 15.3576 21.3746 16.1329 20.9566 16.8566L18.3973 17.2223C18.3973 17.2223 17.9566 17.6816 17.7223 17.8973L17.3566 20.4566C16.6324 20.8737 15.8572 21.1951 15.0504 21.4129L12.9785 19.8566C12.6604 19.8848 12.3404 19.8848 12.0223 19.8566L9.95039 21.4129C9.14322 21.1961 8.36789 20.8746 7.64414 20.4566L7.27852 17.8973C7.04727 17.6785 6.82227 17.4535 6.60352 17.2223L4.04414 16.8566C3.62712 16.1324 3.3057 15.3572 3.08789 14.5504L4.64414 12.4785C4.64414 12.4785 4.61602 11.841 4.64414 11.5223L3.08789 9.45039C3.30469 8.64322 3.62617 7.86789 4.04414 7.14414L6.60352 6.77852C6.82227 6.54727 7.04727 6.32227 7.27852 6.10352L7.64414 3.54414C8.36836 3.12712 9.14357 2.8057 9.95039 2.58789L12.0223 4.14414C12.3404 4.11601 12.6604 4.11601 12.9785 4.14414L15.0504 2.58789C15.8576 2.80469 16.6329 3.12617 17.3566 3.54414L17.7223 6.10352Z" stroke="#333132" stroke-width="2" stroke-linecap="round" stroke-linejoin="round"/>
</svg>
