<svg width="24" height="24" viewBox="0 0 24 24" fill="none" xmlns="http://www.w3.org/2000/svg">
<path fill-rule="evenodd" clip-rule="evenodd" d="M23.3489 10.437C23.3495 10.4376 23.35 10.4383 23.3508 10.4388C24.2103 11.3004 24.21 12.7013 23.3495 13.5623C22.9319 13.9799 22.3771 14.2097 21.7872 14.2097H21.4254V21.4142C21.4254 22.84 20.2656 24 18.8397 24H15.0099C14.6215 24 14.3068 23.6851 14.3068 23.2969V17.6484C14.3068 16.9979 13.7777 16.4687 13.1272 16.4687H10.8683C10.2177 16.4687 9.68844 16.9979 9.68844 17.6484V23.2969C9.68844 23.6851 9.37371 24 8.98538 24H5.15557C3.72987 24 2.56983 22.84 2.56983 21.4142V14.2097H2.17986C2.15697 14.2097 2.13427 14.2086 2.11157 14.2064C1.557 14.1824 1.03849 13.955 0.645772 13.5621C-0.213821 12.7024 -0.215286 11.304 0.641561 10.4421L0.651448 10.4321L10.4354 0.647278C10.8529 0.229797 11.4076 0 11.9977 0C12.5878 0 13.1426 0.229797 13.5598 0.647278L23.3489 10.437Z" fill="#4EAD89"/>
</svg>
