<svg width="24" height="24" viewBox="0 0 24 24" fill="none" xmlns="http://www.w3.org/2000/svg">
<path fill-rule="evenodd" clip-rule="evenodd" d="M23.3523 10.4381C23.3526 10.4384 23.3528 10.4386 23.3531 10.4388C24.2128 11.3004 24.2124 12.7013 23.3518 13.5623C22.9342 13.9799 22.3794 14.2097 21.7894 14.2097H21.4276V21.4142C21.4276 22.84 20.2676 24 18.8416 24H15.0114C14.623 24 14.3083 23.6851 14.3083 23.2969V17.6484C14.3083 16.9979 13.7791 16.4687 13.1285 16.4687H10.8693C10.2188 16.4687 9.68942 16.9979 9.68942 17.6484V23.2969C9.68942 23.6851 9.37466 24 8.98629 24H5.15609C3.73025 24 2.57009 22.84 2.57009 21.4142V14.2097H2.18008C2.15719 14.2097 2.13449 14.2086 2.11178 14.2064C1.55715 14.1824 1.0386 13.955 0.645838 13.5621C-0.213843 12.7024 -0.215307 11.304 0.641626 10.4421L0.651514 10.4321L10.4365 0.647278C10.854 0.229797 11.4088 0 11.9989 0C12.5891 0 13.1439 0.229797 13.5612 0.647278L23.3513 10.437C23.3516 10.4373 23.352 10.4378 23.3523 10.4381ZM21.7894 12.8035C22.0038 12.8035 22.2056 12.7198 22.3574 12.568C22.6698 12.2554 22.6703 11.7469 22.3589 11.4333L22.3543 11.4289L12.5667 1.64154C12.4149 1.48975 12.2133 1.40625 11.9989 1.40625C11.7843 1.40625 11.5827 1.48975 11.4311 1.64154L1.64138 11.4309L1.64083 11.4315C1.64065 11.4316 1.64065 11.4318 1.64047 11.4318C1.32736 11.7451 1.32736 12.2547 1.64047 12.5678C1.78768 12.7152 1.98416 12.7983 2.19363 12.802C2.2048 12.8022 2.2156 12.8027 2.22659 12.8035H3.27322C3.66158 12.8035 3.97634 13.1182 3.97634 13.5066V21.4142C3.97634 22.0646 4.5057 22.5938 5.15609 22.5938H8.28317V17.6484C8.28317 16.2226 9.44332 15.0624 10.8693 15.0624H13.1285C14.5545 15.0624 15.7145 16.2226 15.7145 17.6484V22.5938H18.8416C19.4922 22.5938 20.0213 22.0646 20.0213 21.4142V13.5066C20.0213 13.1182 20.3361 12.8035 20.7245 12.8035H21.7894Z" fill="#9299A3"/>
</svg>
