<svg width="170" height="110" viewBox="0 0 170 110" fill="none"
    xmlns="http://www.w3.org/2000/svg">
    <path d="M169.216 108.624C168.855 108.927 168.399 109.093 167.928 109.094H2.04732C0.95714 109.094 0.0651779 108.204 0.0651779 107.116C0.0651779 106.647 0.238617 106.202 0.535938 105.831L42.7308 55.9051C43.4245 55.0648 44.6882 54.9659 45.5306 55.658C45.6049 55.7321 45.704 55.8063 45.7784 55.9051L70.4065 85.0699L109.579 38.7276C110.272 37.8872 111.536 37.7883 112.378 38.4804C112.453 38.5545 112.552 38.6287 112.626 38.7276L169.514 105.856C170.158 106.672 170.059 107.932 169.216 108.624Z" fill="#4EAD89"/>
    <path d="M41.8884 0.590908C50.6346 0.590908 57.7455 7.68438 57.7455 16.4091C57.7455 25.1338 50.6346 32.2273 41.8884 32.2273C33.1422 32.2273 26.0312 25.1338 26.0312 16.4091C26.0312 7.68438 33.1422 0.590908 41.8884 0.590908Z" fill="#4EAD89"/>
</svg>
