<svg width="24" height="24" viewBox="0 0 24 24" fill="none" xmlns="http://www.w3.org/2000/svg">
<path d="M12.3 22.0004H12.2C10.8285 21.99 9.4729 21.706 8.21254 21.1651C6.95219 20.6242 5.81242 19.8373 4.85998 18.8504C3.09382 16.9617 2.08986 14.4857 2.04184 11.9004C1.99383 9.31496 2.90517 6.80342 4.59998 4.85043C5.69186 3.62678 7.06451 2.68651 8.59998 2.11043C8.77378 2.04148 8.96361 2.02343 9.14729 2.05837C9.33097 2.09332 9.50091 2.17982 9.63725 2.30777C9.77359 2.43572 9.87069 2.59983 9.91722 2.78092C9.96374 2.96201 9.95776 3.15261 9.89998 3.33043C9.35193 4.83137 9.24335 6.45748 9.58698 8.01795C9.9306 9.57843 10.7122 11.0085 11.84 12.1404C12.9783 13.2648 14.4118 14.0437 15.9745 14.387C17.5372 14.7304 19.1652 14.6241 20.67 14.0804C20.8491 14.0174 21.0424 14.0066 21.2274 14.0494C21.4124 14.0922 21.5814 14.1868 21.7146 14.3221C21.8478 14.4574 21.9398 14.6279 21.9797 14.8135C22.0196 14.9992 22.0058 15.1923 21.94 15.3704C21.4291 16.7341 20.6311 17.9721 19.6 19.0004C18.6408 19.9567 17.5021 20.7141 16.2494 21.2289C14.9966 21.7437 13.6544 22.0059 12.3 22.0004ZM7.45998 4.92043C6.95765 5.27273 6.49791 5.68213 6.08998 6.14043C4.71451 7.71657 3.9734 9.74735 4.01035 11.8389C4.0473 13.9305 4.8597 15.9339 6.28998 17.4604C7.0585 18.2586 7.97924 18.8946 8.99777 19.3309C10.0163 19.7672 11.112 19.9948 12.22 20.0004H12.3C13.6262 19.9997 14.9331 19.6827 16.1122 19.0757C17.2914 18.4687 18.3088 17.5893 19.08 16.5104C17.5083 16.7141 15.9109 16.5548 14.4104 16.0448C12.9099 15.5348 11.5463 14.6877 10.4242 13.5686C9.30214 12.4494 8.45151 11.088 7.93766 9.58878C7.4238 8.08961 7.26039 6.4926 7.45998 4.92043Z" fill="#1A1B1E"/>
</svg>
