<svg width="24" height="24" viewBox="0 0 24 24" fill="none" xmlns="http://www.w3.org/2000/svg">
<path d="M19.44 12.9999C19.22 12.9999 18.99 12.9299 18.77 12.8799C18.3245 12.7817 17.8867 12.6514 17.46 12.4899C16.9961 12.3211 16.4862 12.3299 16.0283 12.5145C15.5705 12.6991 15.1971 13.0465 14.98 13.4899L14.76 13.9399C13.786 13.398 12.891 12.7251 12.1 11.9399C11.3148 11.1489 10.6418 10.2539 10.1 9.27987L10.52 8.99987C10.9634 8.78278 11.3108 8.4094 11.4954 7.95156C11.68 7.49372 11.6888 6.98378 11.52 6.51987C11.3612 6.09229 11.2309 5.65467 11.13 5.20987C11.08 4.98987 11.04 4.75987 11.01 4.52987C10.8886 3.82549 10.5196 3.18761 9.96963 2.73111C9.41963 2.2746 8.72471 2.02948 8.01001 2.03987H5.01001C4.57904 2.03582 4.15226 2.12468 3.75872 2.3004C3.36518 2.47612 3.01412 2.73456 2.72944 3.05815C2.44476 3.38174 2.23314 3.76286 2.109 4.17558C1.98485 4.5883 1.95109 5.02293 2.01001 5.44987C2.54275 9.63925 4.45604 13.5317 7.44766 16.5125C10.4393 19.4933 14.3387 21.3924 18.53 21.9099H18.91C19.6474 21.911 20.3594 21.6404 20.91 21.1499C21.2264 20.8669 21.4791 20.52 21.6515 20.1322C21.8239 19.7443 21.912 19.3243 21.91 18.8999V15.8999C21.8978 15.2053 21.6448 14.5364 21.1943 14.0075C20.7439 13.4786 20.1238 13.1225 19.44 12.9999V12.9999ZM19.94 18.9999C19.9398 19.1419 19.9094 19.2822 19.8508 19.4115C19.7922 19.5408 19.7067 19.6562 19.6 19.7499C19.4883 19.8463 19.3576 19.9184 19.2164 19.9615C19.0752 20.0045 18.9266 20.0176 18.78 19.9999C15.0349 19.5197 11.5562 17.8064 8.89273 15.1302C6.22921 12.454 4.53242 8.96721 4.07001 5.21987C4.05409 5.07339 4.06804 4.9252 4.11101 4.78426C4.15398 4.64332 4.22508 4.51256 4.32001 4.39987C4.41372 4.2932 4.52907 4.20771 4.65839 4.14909C4.78771 4.09046 4.92802 4.06005 5.07001 4.05987H8.07001C8.30256 4.05469 8.52963 4.13075 8.71215 4.27494C8.89467 4.41913 9.02122 4.62244 9.07001 4.84987C9.11001 5.1232 9.16001 5.3932 9.22001 5.65987C9.33553 6.18701 9.48927 6.70505 9.68001 7.20987L8.28001 7.85987C8.16031 7.91479 8.05263 7.99281 7.96317 8.08946C7.8737 8.18611 7.80421 8.29948 7.75868 8.42306C7.71315 8.54664 7.69248 8.678 7.69786 8.80959C7.70323 8.94118 7.73455 9.07041 7.79001 9.18987C9.22921 12.2726 11.7073 14.7507 14.79 16.1899C15.0335 16.2899 15.3065 16.2899 15.55 16.1899C15.6747 16.1453 15.7893 16.0763 15.8872 15.9871C15.985 15.8978 16.0642 15.79 16.12 15.6699L16.74 14.2699C17.257 14.4547 17.7846 14.6084 18.32 14.7299C18.5867 14.7899 18.8567 14.8399 19.13 14.8799C19.3574 14.9287 19.5607 15.0552 19.7049 15.2377C19.8491 15.4202 19.9252 15.6473 19.92 15.8799L19.94 18.9999ZM21.86 2.67987C21.7585 2.43552 21.5644 2.24134 21.32 2.13987C21.1998 2.08863 21.0707 2.06145 20.94 2.05987H16.94C16.6748 2.05987 16.4204 2.16522 16.2329 2.35276C16.0454 2.5403 15.94 2.79465 15.94 3.05987C15.94 3.32508 16.0454 3.57944 16.2329 3.76697C16.4204 3.95451 16.6748 4.05987 16.94 4.05987H18.52L15.23 7.35987C15.0438 7.54723 14.9392 7.80068 14.9392 8.06487C14.9392 8.32905 15.0438 8.58251 15.23 8.76987C15.4174 8.95612 15.6708 9.06066 15.935 9.06066C16.1992 9.06066 16.4526 8.95612 16.64 8.76987L19.94 5.47987V7.05987C19.94 7.32508 20.0454 7.57944 20.2329 7.76697C20.4204 7.95451 20.6748 8.05987 20.94 8.05987C21.2052 8.05987 21.4596 7.95451 21.6471 7.76697C21.8347 7.57944 21.94 7.32508 21.94 7.05987V3.05987C21.9384 2.92919 21.9113 2.80009 21.86 2.67987V2.67987Z" fill="black"/>
</svg>
