<svg width="16" height="16" viewBox="0 0 16 16" fill="none" xmlns="http://www.w3.org/2000/svg">
<path fill-rule="evenodd" clip-rule="evenodd" d="M13.1005 11.4843L15.6653 14.049C16.1116 14.4953 16.1116 15.219 15.6653 15.6653C15.219 16.1116 14.4953 16.1116 14.049 15.6653L11.4843 13.1005C10.2915 13.9659 8.8244 14.4762 7.2381 14.4762C3.24061 14.4762 0 11.2356 0 7.2381C0 3.24061 3.24061 0 7.2381 0C11.2356 0 14.4762 3.24061 14.4762 7.2381C14.4762 8.8244 13.9659 10.2915 13.1005 11.4843ZM10.8222 10.6557C11.67 9.76693 12.1905 8.5633 12.1905 7.2381C12.1905 4.50297 9.97322 2.28571 7.2381 2.28571C4.50297 2.28571 2.28571 4.50297 2.28571 7.2381C2.28571 9.97322 4.50297 12.1905 7.2381 12.1905C8.5633 12.1905 9.76693 11.67 10.6557 10.8222C10.6803 10.7921 10.7066 10.7629 10.7347 10.7347C10.7629 10.7066 10.7921 10.6803 10.8222 10.6557Z" fill="#22242A"/>
</svg>
