<svg width="38" height="38" viewBox="0 0 38 38" fill="none" xmlns="http://www.w3.org/2000/svg">
<path d="M19 9.5C19.4199 9.5 19.8225 9.33322 20.1194 9.03635C20.4162 8.73948 20.583 8.33684 20.583 7.917V4.75C20.583 4.33003 20.4162 3.92726 20.1192 3.6303C19.8223 3.33334 19.4195 3.1665 18.9995 3.1665C18.5795 3.1665 18.1768 3.33334 17.8798 3.6303C17.5828 3.92726 17.416 4.33003 17.416 4.75V7.917C17.416 8.12497 17.457 8.3309 17.5366 8.52302C17.6162 8.71515 17.7329 8.8897 17.88 9.03671C18.0271 9.18372 18.2017 9.3003 18.3939 9.37979C18.5861 9.45929 18.792 9.50014 19 9.5Z" fill="white"/>
<path d="M33.25 17.417H30.083C29.663 17.417 29.2603 17.5838 28.9633 17.8808C28.6663 18.1778 28.4995 18.5805 28.4995 19.0005C28.4995 19.4205 28.6663 19.8232 28.9633 20.1202C29.2603 20.4172 29.663 20.584 30.083 20.584H33.25C33.67 20.584 34.0728 20.4172 34.3697 20.1202C34.6667 19.8232 34.8335 19.4205 34.8335 19.0005C34.8335 18.5805 34.6667 18.1778 34.3697 17.8808C34.0728 17.5838 33.67 17.417 33.25 17.417Z" fill="white"/>
<path d="M9.5 19C9.5 18.5802 9.33322 18.1775 9.03635 17.8806C8.73948 17.5838 8.33684 17.417 7.917 17.417H4.75C4.33003 17.417 3.92726 17.5838 3.6303 17.8808C3.33334 18.1778 3.1665 18.5805 3.1665 19.0005C3.1665 19.4205 3.33334 19.8232 3.6303 20.1202C3.92726 20.4172 4.33003 20.584 4.75 20.584H7.917C8.12497 20.584 8.3309 20.543 8.52302 20.4634C8.71515 20.3838 8.8897 20.2671 9.03671 20.12C9.18372 19.9729 9.3003 19.7983 9.37979 19.6061C9.45929 19.4139 9.50014 19.208 9.5 19Z" fill="white"/>
<path d="M9.84801 7.91702C9.5393 7.62528 9.12734 7.46813 8.70276 7.48013C8.27818 7.49213 7.87575 7.67231 7.58401 7.98102C7.29228 8.28973 7.13512 8.70169 7.14712 9.12628C7.15913 9.55086 7.3393 9.95328 7.64801 10.245L9.92801 12.445C10.0777 12.596 10.2557 12.7161 10.4518 12.7983C10.6479 12.8806 10.8583 12.9234 11.0709 12.9243C11.2836 12.9252 11.4943 12.8843 11.6912 12.8037C11.888 12.7232 12.067 12.6047 12.218 12.455C12.369 12.3053 12.4891 12.1273 12.5713 11.9312C12.6536 11.7351 12.6964 11.5247 12.6973 11.3121C12.6982 11.0994 12.6573 10.8887 12.5767 10.6919C12.4962 10.4951 12.3777 10.316 12.228 10.165L9.84801 7.91702Z" fill="white"/>
<path d="M26.9172 12.8882C27.325 12.8868 27.7166 12.7281 28.0102 12.4452L30.2902 10.2452C30.5717 9.95523 30.7317 9.56858 30.7373 9.16449C30.7428 8.7604 30.5937 8.36946 30.3203 8.07181C30.047 7.77416 29.6701 7.59233 29.267 7.56358C28.8639 7.53484 28.4651 7.66135 28.1522 7.9172L25.8722 10.1652C25.6602 10.3858 25.5155 10.6622 25.4548 10.9621C25.3942 11.262 25.4202 11.573 25.5298 11.8586C25.6394 12.1443 25.8281 12.3928 26.0738 12.5751C26.3195 12.7575 26.6121 12.8661 26.9172 12.8882Z" fill="white"/>
<path d="M19 28.5C18.5802 28.5 18.1775 28.6668 17.8806 28.9637C17.5838 29.2605 17.417 29.6632 17.417 30.083V33.25C17.417 33.67 17.5838 34.0727 17.8808 34.3697C18.1778 34.6667 18.5805 34.8335 19.0005 34.8335C19.4205 34.8335 19.8232 34.6667 20.1202 34.3697C20.4172 34.0727 20.584 33.67 20.584 33.25V30.083C20.584 29.875 20.543 29.6691 20.4634 29.477C20.3838 29.2849 20.2671 29.1103 20.12 28.9633C19.9729 28.8163 19.7983 28.6997 19.6061 28.6202C19.4139 28.5407 19.208 28.4999 19 28.5Z" fill="white"/>
<path d="M28.0728 25.555C27.7705 25.2633 27.3646 25.1036 26.9446 25.1111C26.5245 25.1186 26.1246 25.2927 25.8328 25.595C25.5411 25.8974 25.3814 26.3032 25.3889 26.7233C25.3964 27.1434 25.5705 27.5433 25.8728 27.835L28.1528 30.083C28.4615 30.3437 28.8573 30.478 29.2608 30.459C29.6644 30.4399 30.0458 30.2689 30.3284 29.9803C30.6111 29.6916 30.7741 29.3068 30.7848 28.9029C30.7954 28.4991 30.6529 28.1061 30.3858 27.803L28.0728 25.555Z" fill="white"/>
<path d="M9.92716 25.5549L7.64716 27.7549C7.33858 28.0466 7.15854 28.449 7.14663 28.8735C7.13472 29.298 7.29192 29.7098 7.58366 30.0184C7.8754 30.327 8.27777 30.507 8.70226 30.5189C9.12675 30.5308 9.53858 30.3736 9.84716 30.0819L12.1272 27.8819C12.4295 27.5901 12.6036 27.1903 12.6111 26.7702C12.6186 26.3501 12.4589 25.9442 12.1672 25.6419C11.8754 25.3395 11.4755 25.1655 11.0554 25.158C10.6354 25.1505 10.2295 25.3101 9.92716 25.6019V25.5549Z" fill="white"/>
<path d="M19 12.667C17.7474 12.667 16.523 13.0384 15.4816 13.7343C14.4401 14.4302 13.6284 15.4193 13.1491 16.5765C12.6697 17.7337 12.5443 19.007 12.7887 20.2355C13.033 21.464 13.6362 22.5924 14.5219 23.4781C15.4076 24.3638 16.536 24.9669 17.7645 25.2113C18.993 25.4557 20.2663 25.3303 21.4235 24.8509C22.5807 24.3716 23.5698 23.5599 24.2657 22.5184C24.9616 21.477 25.333 20.2525 25.333 19C25.333 17.3204 24.6658 15.7096 23.4781 14.5219C22.2904 13.3342 20.6796 12.667 19 12.667ZM19 22.167C18.3736 22.167 17.7613 21.9813 17.2405 21.6333C16.7197 21.2853 16.3138 20.7906 16.0741 20.212C15.8344 19.6333 15.7716 18.9965 15.8938 18.3821C16.016 17.7678 16.3177 17.2035 16.7606 16.7606C17.2035 16.3177 17.7678 16.016 18.3821 15.8938C18.9965 15.7716 19.6333 15.8344 20.212 16.0741C20.7906 16.3138 21.2853 16.7197 21.6333 17.2405C21.9813 17.7613 22.167 18.3736 22.167 19C22.167 19.4159 22.0851 19.8277 21.9259 20.212C21.7668 20.5962 21.5335 20.9453 21.2394 21.2394C20.9453 21.5335 20.5962 21.7668 20.212 21.9259C19.8277 22.0851 19.4159 22.167 19 22.167Z" fill="white"/>
</svg>
