<svg width="24" height="24" viewBox="0 0 24 24" fill="none" xmlns="http://www.w3.org/2000/svg">
<path fill-rule="evenodd" clip-rule="evenodd" d="M19.9993 0.232117C20.4556 -0.219088 21.2366 0.0231894 21.3506 0.651276L21.6532 2.32053L23.3414 2.61984C23.9765 2.73246 24.2216 3.50476 23.7653 3.95596L22.0226 5.67916C23.2516 7.53966 23.9661 9.76278 23.9661 12.1508C23.9661 18.695 18.6011 24 11.983 24C5.36499 24 0 18.695 0 12.1508C0 5.60668 5.36499 0.301619 11.983 0.301619C14.2574 0.301619 16.3837 0.928127 18.1952 2.01615L19.9993 0.232117ZM20.2199 1.87591L18.6503 3.42802L18.9641 4.97962L20.5332 5.28995L22.1028 3.73782L21.0534 3.55177C20.7245 3.49344 20.467 3.23887 20.408 2.91363L20.2199 1.87591ZM21.028 6.58556C22.0463 8.20036 22.6346 10.1076 22.6346 12.1508C22.6346 17.9678 17.8658 22.6834 11.983 22.6834C6.10033 22.6834 1.33145 17.9678 1.33145 12.1508C1.33145 6.33382 6.10033 1.6182 11.983 1.6182C13.9226 1.6182 15.7411 2.1308 17.3074 3.02646C17.27 3.149 17.2626 3.28051 17.2887 3.40985L17.7192 5.53769L15.2431 7.9861C14.3422 7.29552 13.2112 6.88447 11.983 6.88447C9.04168 6.88447 6.65724 9.24228 6.65724 12.1508C6.65724 15.0592 9.04168 17.4171 11.983 17.4171C14.9243 17.4171 17.3088 15.0592 17.3088 12.1508C17.3088 10.9312 16.8896 9.80846 16.1859 8.9158L18.8345 6.29666L20.5516 6.63623C20.7143 6.6684 20.8803 6.64933 21.028 6.58556ZM14.2915 8.92708L11.5217 11.6659C11.2618 11.923 11.2618 12.3397 11.5217 12.5968C11.7817 12.854 12.2033 12.854 12.4633 12.5968L15.2347 9.85639C15.7023 10.5031 15.9774 11.2951 15.9774 12.1508C15.9774 14.3322 14.1891 16.1005 11.983 16.1005C9.77696 16.1005 7.98869 14.3322 7.98869 12.1508C7.98869 9.96935 9.77696 8.20105 11.983 8.20105C12.843 8.20105 13.6396 8.46983 14.2915 8.92708Z" fill="#9299A3"/>
</svg>
