<svg width="24" height="24" viewBox="0 0 24 24" fill="none"
    xmlns="http://www.w3.org/2000/svg">
    <path d="M12.7375 8.29193C12.4989 8.24452 12.2523 8.21918 12 8.21918C9.91522 8.21918 8.21918 9.91522 8.21918 12C8.21918 14.0848 9.91522 15.7808 12 15.7808C14.0848 15.7808 15.7808 14.0848 15.7808 12C15.7808 11.7477 15.7555 11.5011 15.7081 11.2625L13.4853 13.4853C13.0885 13.882 12.561 14.1005 12 14.1005C11.439 14.1005 10.9115 13.882 10.5147 13.4853C10.118 13.0885 9.89954 12.561 9.89954 12C9.89954 11.439 10.118 10.9115 10.5147 10.5147L12.7375 8.29193Z" fill="#4EAD89"/>
    <path d="M22.9261 7.04004L21.4133 8.55286C21.2618 8.70428 21.0912 8.8299 20.907 8.92731C21.2402 9.89099 21.4219 10.9246 21.4219 12C21.4219 17.1953 17.1953 21.4219 12 21.4219C6.80475 21.4219 2.57812 17.1953 2.57812 12C2.57812 6.80475 6.80475 2.57812 12 2.57812C13.0757 2.57812 14.1099 2.75995 15.0738 3.09338C15.1714 2.909 15.2961 2.73761 15.4473 2.58655L16.96 1.07391C15.4473 0.384521 13.7679 0 12 0C5.38312 0 0 5.38312 0 12C0 18.6169 5.38312 24 12 24C18.6169 24 24 18.6169 24 12C24 10.2321 23.6155 8.55267 22.9261 7.04004Z" fill="#4EAD89"/>
    <path d="M15.001 6.00121L14.8722 4.47474C13.9796 4.13269 13.0114 3.94519 12 3.94519C7.55859 3.94519 3.94519 7.55859 3.94519 12C3.94519 16.4414 7.55859 20.0548 12 20.0548C16.4414 20.0548 20.0548 16.4414 20.0548 12C20.0548 10.9885 19.8673 10.0203 19.5252 9.12774L17.9988 8.99894L16.8784 10.1191C17.1043 10.7032 17.2285 11.3372 17.2285 12C17.2285 14.8831 14.8831 17.2285 12 17.2285C9.11689 17.2285 6.77143 14.8831 6.77143 12C6.77143 9.11689 9.11689 6.77143 12 6.77143C12.6628 6.77143 13.2968 6.89563 13.8808 7.12159L15.001 6.00121Z" fill="#4EAD89"/>
    <path d="M16.389 4.02949L16.5913 6.42633L11.7104 11.3072C11.439 11.5784 11.439 12.0184 11.7104 12.2896C11.8459 12.4253 12.0237 12.4931 12.2016 12.4931C12.3794 12.4931 12.5573 12.4253 12.6928 12.2896L17.5737 7.40873L19.9706 7.61082C19.9901 7.61244 20.0095 7.61335 20.029 7.61335C20.2125 7.61335 20.3894 7.54062 20.5202 7.40981L23.4676 4.46225C23.6588 4.2712 23.7218 3.98643 23.629 3.73241C23.536 3.4784 23.3042 3.30146 23.0348 3.27884L20.901 3.09883L20.7212 0.965227C20.6984 0.695655 20.5215 0.463895 20.2676 0.371083C20.0136 0.27809 19.7288 0.341231 19.5376 0.532284L16.5902 3.47985C16.4455 3.62458 16.3718 3.82559 16.389 4.02949Z" fill="#4EAD89"/>
</svg>
