<svg width="19" height="24" viewBox="0 0 19 24" fill="none" xmlns="http://www.w3.org/2000/svg">
<path fill-rule="evenodd" clip-rule="evenodd" d="M8.39451 11.2H10.6054C15.2397 11.2044 18.9953 14.6833 19 18.976V20.728C18.9953 22.5332 17.4166 23.9956 15.4677 24H3.53225C1.58342 23.9956 0.00473126 22.5332 0 20.728V18.976C0.00473126 14.6833 3.76032 11.2044 8.39451 11.2ZM15.4677 22.4C16.4626 22.3956 17.268 21.6496 17.2727 20.728H17.2728V18.976C17.2728 15.5651 14.2877 12.8 10.6055 12.8H8.39459C4.71233 12.8 1.72728 15.5651 1.72728 18.976V20.728C1.73201 21.6496 2.53736 22.3956 3.53226 22.4H15.4677Z" fill="#9299A3"/>
<path fill-rule="evenodd" clip-rule="evenodd" d="M15.1135 5.2C15.1135 8.07186 12.6002 10.4 9.49987 10.4C6.40149 10.3956 3.89096 8.07008 3.88623 5.2C3.88623 2.32814 6.39956 0 9.49987 0C12.6002 0 15.1135 2.32814 15.1135 5.2ZM13.3862 5.2C13.3862 3.21179 11.6462 1.6 9.49987 1.6C7.35543 1.60439 5.61824 3.21357 5.61351 5.2C5.61351 7.18821 7.3535 8.79999 9.49987 8.79999C11.6462 8.79999 13.3862 7.18821 13.3862 5.2Z" fill="#9299A3"/>
</svg>
