<svg width="24" height="24" viewBox="0 0 24 24" fill="none" xmlns="http://www.w3.org/2000/svg">
<path fill-rule="evenodd" clip-rule="evenodd" d="M6.47337 3.25H15.5266C16.203 3.25 16.7485 3.24999 17.1925 3.28029C17.6491 3.31144 18.0528 3.37711 18.4351 3.53545C19.3539 3.91605 20.0839 4.64608 20.4645 5.56494C20.6229 5.94721 20.6886 6.35092 20.7197 6.80748C20.75 7.25149 20.75 7.79704 20.75 8.47336V8.68252C20.2276 8.40637 19.632 8.25 19 8.25H17C14.9289 8.25 13.25 9.92893 13.25 12C13.25 14.0711 14.9289 15.75 17 15.75H19C19.632 15.75 20.2276 15.5936 20.75 15.3175V15.5266C20.75 16.203 20.75 16.7485 20.7197 17.1925C20.6886 17.6491 20.6229 18.0528 20.4645 18.4351C20.0839 19.3539 19.3539 20.0839 18.4351 20.4645C18.0528 20.6229 17.6491 20.6886 17.1925 20.7197C16.7485 20.75 16.203 20.75 15.5266 20.75H6.47336C5.79704 20.75 5.25149 20.75 4.80748 20.7197C4.35092 20.6886 3.94721 20.6229 3.56494 20.4645C2.64608 20.0839 1.91605 19.3539 1.53545 18.4351C1.37711 18.0528 1.31144 17.6491 1.28029 17.1925C1.24999 16.7485 1.25 16.203 1.25 15.5267V8.47337C1.25 7.79705 1.24999 7.25148 1.28029 6.80748C1.31144 6.35092 1.37711 5.94721 1.53545 5.56494C1.91605 4.64608 2.64608 3.91605 3.56494 3.53545C3.94721 3.37711 4.35092 3.31144 4.80748 3.28029C5.25149 3.24999 5.79705 3.25 6.47337 3.25ZM5 16.25C4.58579 16.25 4.25 16.5858 4.25 17C4.25 17.4142 4.58579 17.75 5 17.75H9C9.41421 17.75 9.75 17.4142 9.75 17C9.75 16.5858 9.41421 16.25 9 16.25H5Z" stroke="#9299A3" stroke-linecap="round" stroke-linejoin="round"/>
<path d="M18 12C18 12.5523 17.5523 13 17 13C16.4477 13 16 12.5523 16 12C16 11.4477 16.4477 11 17 11C17.5523 11 18 11.4477 18 12Z" stroke="#9299A3" stroke-linecap="round" stroke-linejoin="round"/>
</svg>
