<svg width="28" height="28" viewBox="0 0 28 28" fill="none" xmlns="http://www.w3.org/2000/svg">
    <path fill-rule="evenodd" clip-rule="evenodd" d="M25.3451 15.9999C26.0597 14.7623 26.0597 13.2375 25.3451 11.9999L21.4046 5.17456C20.69 3.93696 19.3695 3.17456 17.9404 3.17456H10.0593C8.63019 3.17456 7.30968 3.93696 6.59515 5.17456L2.65455 11.9999C1.94002 13.2375 1.94002 14.7623 2.65455 15.9999L6.59515 22.8252C7.30968 24.0628 8.63019 24.8252 10.0593 24.8252H17.9404C19.3695 24.8252 20.69 24.0628 21.4046 22.8252L25.3451 15.9999ZM18.0045 15.4999C18.5404 14.5717 18.5404 13.4281 18.0045 12.4999L17.3012 11.2818C16.7653 10.3535 15.7749 9.78175 14.7031 9.78175H13.2966C12.2248 9.78175 11.2344 10.3535 10.6985 11.2818L9.9952 12.4999C9.45931 13.4281 9.45931 14.5717 9.99521 15.4999L10.6985 16.718C11.2344 17.6462 12.2248 18.218 13.2966 18.218H14.7031C15.7749 18.218 16.7653 17.6462 17.3012 16.718L18.0045 15.4999Z" fill="#C3D7FF"/>
</svg>
