<?xml version="1.0" encoding="UTF-8" standalone="no"?>
<svg
   id="Layer_1"
   data-name="Layer 1"
   viewBox="0 0 56 56"
   version="1.1"
   width="56"
   height="56"
   xmlns="http://www.w3.org/2000/svg"
   xmlns:svg="http://www.w3.org/2000/svg">
  <defs
     id="defs29">
    <style
       id="style2">.cls-1{fill:none;}.cls-2{fill:url(#linear-gradient);}.cls-3{clip-path:url(#clip-path);}.cls-4{fill:#fff;}.cls-5{clip-path:url(#clip-path-2);}.cls-6{clip-path:url(#clip-path-3);}.cls-7{clip-path:url(#clip-path-4);}</style>
    <linearGradient
       id="linear-gradient"
       x1="99.169998"
       y1="99.169998"
       x2="276.23999"
       y2="276.23999"
       gradientUnits="userSpaceOnUse"
       gradientTransform="matrix(0.27102894,0,0,0.27102894,-22.869422,-22.869422)">
      <stop
         offset="0"
         stop-color="#D36EAC"
         id="stop4" />
      <stop
         offset="1"
         stop-color="#1D2869"
         id="stop14" />
    </linearGradient>
    <clipPath
       id="clip-path">
      <rect
         class="cls-1"
         x="143"
         y="112.63"
         width="39"
         height="41.369999"
         id="rect17" />
    </clipPath>
    <clipPath
       id="clip-path-2">
      <rect
         class="cls-1"
         x="142.23"
         y="162"
         width="40.77"
         height="100.02"
         id="rect20" />
    </clipPath>
    <clipPath
       id="clip-path-3">
      <rect
         class="cls-1"
         x="193"
         y="112.63"
         width="39"
         height="41.369999"
         id="rect23" />
    </clipPath>
    <clipPath
       id="clip-path-4">
      <rect
         class="cls-1"
         x="192"
         y="162"
         width="40.98"
         height="100.02"
         id="rect26" />
    </clipPath>
  </defs>
  <path
     class="cls-2"
     d="M 0,56 V 0 c 17.50808,0 37.522,0 56,0 v 56 c -16.751577,0 -39.230051,0.06507 -56,0 z"
     id="path31"
     style="fill:url(#linear-gradient);stroke-width:0.271029" />
  <g
     class="cls-3"
     clip-path="url(#clip-path)"
     id="g35"
     transform="matrix(0.19185466,0,0,0.19185466,-7.9901644,-7.9372556)">
    <path
       class="cls-4"
       d="m 162.18,112.63 a 19.72,19.72 0 0 0 -3.69,0.35 21,21 0 0 0 -3.57,1.18 13.84,13.84 0 0 0 -3.19,1.89 19.34,19.34 0 0 0 -2.83,2.59 28.51,28.51 0 0 0 -2.33,3.07 15.7,15.7 0 0 0 -1.73,3.54 20.81,20.81 0 0 0 -1.1,3.89 c -0.12,1.29 -0.25,2.59 -0.25,4 a 22.6,22.6 0 0 0 0.37,4 23.27,23.27 0 0 0 1.11,3.89 24.49,24.49 0 0 0 1.72,3.53 21.34,21.34 0 0 0 5.16,5.66 17.38,17.38 0 0 0 3.2,1.89 18.35,18.35 0 0 0 3.56,1.18 19,19 0 0 0 7.37,0 21,21 0 0 0 3.57,-1.18 17.71,17.71 0 0 0 3.2,-1.89 18.72,18.72 0 0 0 2.82,-2.59 29.58,29.58 0 0 0 2.3,-3.07 18.88,18.88 0 0 0 1.72,-3.53 20.73,20.73 0 0 0 1.11,-3.89 21.71,21.71 0 0 0 0.37,-4 22.38,22.38 0 0 0 -0.37,-4 22.74,22.74 0 0 0 -1.11,-3.89 23.13,23.13 0 0 0 -1.72,-3.54 21,21 0 0 0 -2.33,-3.07 31.59,31.59 0 0 0 -2.83,-2.59 17.53,17.53 0 0 0 -6.71,-3.05 22.69,22.69 0 0 0 -3.82,-0.37 z"
       id="path33" />
  </g>
  <g
     class="cls-5"
     clip-path="url(#clip-path-2)"
     id="g39"
     transform="matrix(0.19185466,0,0,0.19185466,-7.992893,-7.9372556)">
    <path
       class="cls-4"
       d="M 160.67422,162.15 V 262 h 3 v -99.85 z m 8.12,0 h -5.17 V 262 h 0.12 c 8.36,0 15.62,-9.91 16.23,-22 l 2.83,-55.77 c 0.65,-12.15 -5.62,-22 -14,-22 z m -12.54,0 c -8.32,0 -14.59,9.9 -14,22 l 2.85,55.85 c 0.62,11.79 7.62,21.57 15.61,22 v -99.85 z"
       id="path37" />
  </g>
  <g
     class="cls-6"
     clip-path="url(#clip-path-3)"
     id="g43"
     transform="matrix(0.19185466,0,0,0.19185466,-7.9901644,-7.9372556)">
    <path
       class="cls-4"
       d="m 212.57,112.63 a 19.88,19.88 0 0 0 -3.69,0.35 20.93,20.93 0 0 0 -3.56,1.18 17.38,17.38 0 0 0 -3.2,1.89 19.34,19.34 0 0 0 -2.83,2.59 31.37,31.37 0 0 0 -2.33,3.07 15.66,15.66 0 0 0 -1.72,3.54 20.11,20.11 0 0 0 -1.11,3.89 c -0.12,1.29 -0.24,2.59 -0.24,4 a 22.59,22.59 0 0 0 0.36,4 22.75,22.75 0 0 0 2.83,7.42 21.8,21.8 0 0 0 5.16,5.66 17.71,17.71 0 0 0 3.2,1.89 18.35,18.35 0 0 0 3.56,1.18 19.09,19.09 0 0 0 7.38,0 20.93,20.93 0 0 0 3.56,-1.18 17.71,17.71 0 0 0 3.2,-1.89 18.72,18.72 0 0 0 2.82,-2.59 28.22,28.22 0 0 0 2.3,-3.07 18.28,18.28 0 0 0 1.72,-3.53 20.73,20.73 0 0 0 1.11,-3.89 21.63,21.63 0 0 0 0,-8 21.87,21.87 0 0 0 -1.11,-3.89 23.13,23.13 0 0 0 -1.72,-3.54 21,21 0 0 0 -2.33,-3.07 29.07,29.07 0 0 0 -2.83,-2.59 17.63,17.63 0 0 0 -3.19,-1.89 18,18 0 0 0 -3.57,-1.18 22.69,22.69 0 0 0 -3.77,-0.35 z"
       id="path41" />
  </g>
  <g
     class="cls-7"
     clip-path="url(#clip-path-4)"
     id="g47"
     transform="matrix(0.19185466,0,0,0.19185466,-7.9901644,-7.9372556)">
    <path
       class="cls-4"
       d="M 211.05,162.15 V 262 h 3 v -99.85 z m 8.12,0 H 214 V 262 h 0.12 c 8.36,0 15.61,-9.91 16.22,-22 l 2.83,-55.77 c 0.65,-12.15 -5.62,-22 -14,-22 z m -12.54,0 c -8.36,0 -14.63,9.9 -14,22 l 2.82,55.85 c 0.61,11.79 7.62,21.57 15.6,22 v -99.85 z"
       id="path45" />
  </g>
</svg>
