<?xml version="1.0" encoding="UTF-8" standalone="no"?>
<!-- Created with Inkscape (http://www.inkscape.org/) -->

<svg
    width="16.723129"
    height="27.57"
    viewBox="0 0 4.4246611 7.2945625"
    version="1.1"
    id="svg878"
    xmlns="http://www.w3.org/2000/svg"
    xmlns:svg="http://www.w3.org/2000/svg">
  <g
      id="layer1"
      transform="translate(-65.830939,-63.748293)">
    <g
        id="use17"
        transform="matrix(0.05973792,0,0,0.0575735,65.832734,63.748293)">
      <path
          class="cls-1"
          d="m 16.23,0 a 15.26,15.26 0 0 0 -3,0.3 16.62,16.62 0 0 0 -2.9,1 11.34,11.34 0 0 0 -2.6,1.6 15.84,15.84 0 0 0 -2.3,2.2 24.76,24.76 0 0 0 -1.9,2.6 13.79,13.79 0 0 0 -1.4,3 17.83,17.83 0 0 0 -0.9,3.3 c -0.1,1.1 -0.2,2.2 -0.2,3.4 a 19.53,19.53 0 0 0 0.3,3.4 20.25,20.25 0 0 0 0.9,3.3 20.87,20.87 0 0 0 1.4,3 24.76,24.76 0 0 0 1.9,2.6 23.91,23.91 0 0 0 2.3,2.2 14,14 0 0 0 2.6,1.6 14.19,14.19 0 0 0 2.9,1 15.15,15.15 0 0 0 6,0 16.62,16.62 0 0 0 2.9,-1 14,14 0 0 0 2.6,-1.6 15.84,15.84 0 0 0 2.3,-2.2 24.76,24.76 0 0 0 1.87,-2.6 16.39,16.39 0 0 0 1.4,-3 17.83,17.83 0 0 0 0.9,-3.3 18.7,18.7 0 0 0 0.3,-3.4 A 19.53,19.53 0 0 0 31.3,14 20.25,20.25 0 0 0 30.4,10.7 20.87,20.87 0 0 0 29,7.7 17.42,17.42 0 0 0 27.1,5.1 23.91,23.91 0 0 0 24.8,2.9 14,14 0 0 0 22.2,1.3 14.19,14.19 0 0 0 19.3,0.3 17.09,17.09 0 0 0 16.23,0 Z"
          id="path959"
          fill="#ffffff" />
      <path
          class="cls-1"
          d="m 15,42 v 84.7 h 2.4 V 42 Z m 6.6,0 h -4.2 v 84.7 h 0.1 c 6.8,0 12.7,-8.4 13.2,-18.7 L 33,60.7 C 33.53,50.4 28.43,42 21.63,42 Z M 11.4,42 C 4.63,42 -0.47,50.4 0,60.7 L 2.33,108 c 0.5,10 6.2,18.3 12.7,18.7 V 42 Z"
          id="path961"
          fill="#ffffff" />
      <path
          class="cls-1"
          d="m 57.23,0 a 15.26,15.26 0 0 0 -3,0.3 16.62,16.62 0 0 0 -2.9,1 14,14 0 0 0 -2.6,1.6 15.84,15.84 0 0 0 -2.3,2.2 24.76,24.76 0 0 0 -1.9,2.6 13.79,13.79 0 0 0 -1.4,3 17.83,17.83 0 0 0 -0.9,3.3 c -0.1,1.1 -0.2,2.2 -0.2,3.4 a 19.53,19.53 0 0 0 0.3,3.4 20.25,20.25 0 0 0 0.9,3.3 20.87,20.87 0 0 0 1.4,3 24.76,24.76 0 0 0 1.9,2.6 23.91,23.91 0 0 0 2.3,2.2 14,14 0 0 0 2.6,1.6 14.19,14.19 0 0 0 2.9,1 15.15,15.15 0 0 0 6,0 16.62,16.62 0 0 0 2.9,-1 14,14 0 0 0 2.6,-1.6 15.84,15.84 0 0 0 2.3,-2.2 24.76,24.76 0 0 0 1.87,-2.6 16.39,16.39 0 0 0 1.4,-3 17.83,17.83 0 0 0 0.9,-3.3 19.42,19.42 0 0 0 0,-6.8 A 20.25,20.25 0 0 0 71.4,10.7 20.87,20.87 0 0 0 70,7.7 17.42,17.42 0 0 0 68.1,5.1 23.91,23.91 0 0 0 65.8,2.9 14,14 0 0 0 63.2,1.3 14.19,14.19 0 0 0 60.3,0.3 17.09,17.09 0 0 0 57.23,0 Z"
          id="path963"
          fill="#ffffff" />
      <path
          class="cls-1"
          d="m 56,42 v 84.7 h 2.4 V 42 Z m 6.6,0 h -4.2 v 84.7 h 0.1 c 6.8,0 12.7,-8.4 13.2,-18.7 L 74,60.7 C 74.53,50.4 69.43,42 62.63,42 Z M 52.4,42 C 45.6,42 40.5,50.4 41,60.7 l 2.3,47.3 c 0.5,10 6.2,18.3 12.7,18.7 V 42 Z"
          id="path965"
          fill="#ffffff" />
    </g>
  </g>
</svg>
