<svg width="16" height="14" viewBox="0 0 16 14" fill="none" xmlns="http://www.w3.org/2000/svg">
    <path d="M8.49271 13.4042C8.10316 13.7904 7.48023 13.7898 7.09053 13.4038C5.68258 12.0091 2.54698 8.90217 1.37106 7.72972C0.493976 6.8561 -0.00632129 5.81085 0.00305928 4.55995C0.00609521 2.70908 1.26745 1.09167 3.07676 0.618613C4.62143 0.219686 5.99724 0.572226 7.15887 1.67005C7.3715 1.87106 7.56067 2.09681 7.79519 2.3473C8.01719 2.11227 8.19073 1.91899 8.37678 1.72881C9.34451 0.735611 10.747 0.281247 12.1214 0.515681C13.4957 0.750116 14.6633 1.64288 15.2387 2.8993C15.9516 4.43471 15.6749 5.90053 14.6711 7.24266C14.5666 7.37948 10.223 11.6889 8.49271 13.4042Z" fill="black"/>
</svg>
