<svg width="10" height="9" viewBox="0 0 10 9" fill="none" xmlns="http://www.w3.org/2000/svg">
    <path d="M1.07817 0.87806C1.04472 0.846698 1.01818 0.809467 1.00008 0.768491C0.981974 0.727516 0.972656 0.683598 0.972656 0.639246C0.972656 0.594895 0.981974 0.550977 1.00008 0.510002C1.01818 0.469026 1.04472 0.431795 1.07817 0.400433C1.11162 0.369072 1.15134 0.344195 1.19504 0.327222C1.23875 0.310249 1.2856 0.301514 1.3329 0.301514C1.38021 0.301514 1.42706 0.310249 1.47077 0.327222C1.51447 0.344195 1.55419 0.369072 1.58764 0.400433L5.29064 3.87267L8.99363 0.400433C9.02709 0.369072 9.0668 0.344195 9.11051 0.327222C9.15422 0.310249 9.20106 0.301514 9.24837 0.301514C9.29568 0.301514 9.34252 0.310249 9.38623 0.327222C9.42994 0.344195 9.46965 0.369072 9.5031 0.400433C9.53656 0.431795 9.56309 0.469026 9.5812 0.510002C9.5993 0.550977 9.60862 0.594895 9.60862 0.639246C9.60862 0.683598 9.5993 0.727516 9.5812 0.768491C9.56309 0.809467 9.53656 0.846698 9.5031 0.87806L5.79938 4.34962L9.5031 7.82118C9.53656 7.85254 9.56309 7.88977 9.5812 7.93075C9.5993 7.97173 9.60862 8.01564 9.60862 8.05999C9.60862 8.10435 9.5993 8.14826 9.5812 8.18924C9.56309 8.23022 9.53656 8.26745 9.5031 8.29881C9.46965 8.33017 9.42994 8.35505 9.38623 8.37202C9.34252 8.38899 9.29568 8.39773 9.24837 8.39773C9.20106 8.39773 9.15422 8.38899 9.11051 8.37202C9.0668 8.35505 9.02709 8.33017 8.99363 8.29881L5.29064 4.82657L1.58764 8.29881C1.55419 8.33017 1.51447 8.35505 1.47077 8.37202C1.42706 8.38899 1.38021 8.39773 1.3329 8.39773C1.2856 8.39773 1.23875 8.38899 1.19504 8.37202C1.15134 8.35505 1.11162 8.33017 1.07817 8.29881C1.04472 8.26745 1.01818 8.23022 1.00008 8.18924C0.981974 8.14826 0.972656 8.10435 0.972656 8.05999C0.972656 8.01564 0.981974 7.97173 1.00008 7.93075C1.01818 7.88977 1.04472 7.85254 1.07817 7.82118L4.78189 4.34962L1.07817 0.87806Z" fill="#B8B8B8"/>
</svg>
