<svg width="25" height="18" viewBox="0 0 25 18" fill="none" xmlns="http://www.w3.org/2000/svg">
    <path d="M15.3689 13.8945L17.9189 16.2093C16.2341 16.9081 14.4126 17.3012 12.5 17.3012C7.67304 17.2575 3.30146 14.8117 0.34153 10.9245C-0.113843 10.3131 -0.113843 9.52693 0.34153 8.91547C1.66211 7.12477 3.30146 5.68347 5.12295 4.59158L8.17395 7.38682C7.67304 8.1293 7.39982 9.00282 7.39982 9.92001C7.39982 12.5842 9.67669 14.768 12.4545 14.768C13.5929 14.768 14.5492 14.4186 15.3689 13.8945ZM13.5018 12.1911L10.041 9.04649C9.94991 9.30855 9.90437 9.61428 9.90437 9.87633C9.90437 11.2303 11.0883 12.3658 12.5 12.3658C12.8643 12.4095 13.1831 12.3222 13.5018 12.1911ZM21.2887 14.2439L22.9736 15.7725C23.52 16.253 23.52 17.0828 23.0191 17.6069C22.7459 17.869 22.3816 18 22.0173 18C21.6985 18 21.3342 17.869 21.061 17.6506L4.2122 2.27677C3.66576 1.75266 3.62022 0.922826 4.16667 0.398718C4.71312 -0.125389 5.53279 -0.125389 6.07924 0.355043L8.94809 2.97558C10.0865 2.66985 11.2705 2.53882 12.5 2.53882C17.3725 2.53882 21.6985 5.02834 24.6585 8.91547C25.1138 9.52693 25.1138 10.3131 24.6585 10.9245C23.7022 12.1911 22.5638 13.3267 21.2887 14.2439ZM17.4636 10.7498C17.5091 10.4878 17.5546 10.1821 17.5546 9.87633C17.5546 7.21212 15.2778 5.02834 12.5 5.02834C12.0902 5.02834 11.7259 5.07201 11.3616 5.15936L17.4636 10.7498Z" fill="#B8B8B8"/>
</svg>
