<svg width="25" height="18" viewBox="0 -2.38 25 18" fill="none" xmlns="http://www.w3.org/2000/svg">
    <path d="M15.0956 7.5C15.0956 8.87574 13.9117 10.0296 12.5 10.0296C11.0883 10.0296 9.90437 8.87574 9.90437 7.5C9.90437 6.12426 11.0883 4.97041 12.5 4.97041C13.9572 4.97041 15.0956 6.07988 15.0956 7.5ZM24.6585 8.52071C21.6985 12.4704 17.3725 15 12.5 15C7.6275 15 3.30146 12.4704 0.34153 8.52071C-0.113843 7.89941 -0.113843 7.10059 0.34153 6.47929C3.30146 2.52959 7.67304 0 12.5 0C17.327 0 21.6985 2.52959 24.6585 6.47929C25.1138 7.05621 25.1138 7.89941 24.6585 8.52071ZM17.5546 7.5C17.5546 4.7929 15.2778 2.57396 12.5 2.57396C9.72222 2.57396 7.44535 4.7929 7.44535 7.5C7.44535 10.2071 9.72222 12.426 12.5 12.426C15.2778 12.426 17.5546 10.2071 17.5546 7.5Z" fill="#8F8F8F"/>
</svg>
