<svg width="32" height="26" viewBox="0 0 32 26" fill="none" xmlns="http://www.w3.org/2000/svg">
    <path d="M22.9006 2.32408C23.1312 1.84305 23.7088 1.64021 24.1915 1.86624C28.4539 3.88114 31.2102 8.22198 31.2102 12.9221C31.2102 17.6184 28.4578 21.9554 24.1992 23.9742C24.0655 24.0379 23.924 24.0669 23.7844 24.0669C23.422 24.0669 23.0731 23.8641 22.9083 23.5163C22.6776 23.0353 22.8851 22.4577 23.3677 22.2297C26.9536 20.5297 29.2719 16.8766 29.2719 12.9221C29.2719 8.96188 26.9517 5.30877 23.3599 3.61069C22.8773 3.38273 22.6699 2.80704 22.9006 2.32408Z" fill="white"/>
    <path d="M27.0913 12.9202C27.0913 15.4181 25.6278 17.7228 23.3658 18.7949C23.2301 18.8587 23.0886 18.8896 22.949 18.8896C22.5865 18.8896 22.2396 18.6848 22.0729 18.3371C21.8442 17.8561 22.0496 17.2804 22.5323 17.0505C24.1237 16.2971 25.1529 14.6763 25.1529 12.9202C25.1529 11.1642 24.1217 9.54336 22.5303 8.78994C22.0457 8.56199 21.8403 7.98437 22.069 7.50334C22.2977 7.02231 22.8754 6.81754 23.3599 7.04549C25.6259 8.11573 27.0913 10.4223 27.0913 12.9202Z" fill="white"/>
    <path fill-rule="evenodd" clip-rule="evenodd" d="M17.5064 0.247822L8.93234 5.81312C8.43299 6.13722 8.12468 6.73555 8.12468 7.38183V18.4587C8.12468 19.105 8.43299 19.7033 8.93234 20.0294L17.5064 25.5927C18.5864 26.2946 19.9426 25.4221 19.9426 24.024V1.81654C19.9426 0.418501 18.5864 -0.454073 17.5064 0.247822ZM6.52071 7.88428V17.9563C6.52071 18.7272 5.90598 19.3524 5.14561 19.3524H1.40049C0.640119 19.3524 0.0253906 18.7272 0.0253906 17.9563V7.88428C0.0253906 7.11335 0.640119 6.48817 1.40049 6.48817H5.14561C5.90598 6.48817 6.52071 7.11335 6.52071 7.88428Z" fill="white"/>
</svg>
