<svg width="32" height="26" viewBox="1.3 0 31 26" fill="none" xmlns="http://www.w3.org/2000/svg">
    <path fill-rule="evenodd" clip-rule="evenodd" d="M28.0728 12.9682L30.3899 10.619C30.7587 10.245 30.7587 9.6371 30.3899 9.26314C30.0191 8.88918 29.4214 8.88918 29.0526 9.26314L26.7355 11.6124L24.4204 9.26314C24.0497 8.88918 23.452 8.88918 23.0831 9.26314C22.7124 9.6371 22.7124 10.245 23.0831 10.619L25.3983 12.9682L23.0831 15.3175C22.7124 15.6914 22.7124 16.2994 23.0831 16.6733C23.2666 16.8612 23.5087 16.9552 23.7508 16.9552C23.9929 16.9552 24.235 16.8612 24.4204 16.6733L26.7355 14.3241L29.0526 16.6733C29.2361 16.8612 29.4782 16.9552 29.7203 16.9552C29.9624 16.9552 30.2045 16.8612 30.3899 16.6733C30.7587 16.2994 30.7587 15.6914 30.3899 15.3175L28.0728 12.9682ZM18.2466 0.247822L9.67257 5.81312C9.17322 6.13722 8.86491 6.73555 8.86491 7.38183V18.4587C8.86491 19.105 9.17322 19.7033 9.67257 20.0294L18.2466 25.5927C19.3266 26.2946 20.6828 25.4221 20.6828 24.024V1.81654C20.6828 0.418501 19.3266 -0.454073 18.2466 0.247822ZM7.26094 7.88428V17.9563C7.26094 18.7272 6.64621 19.3524 5.88584 19.3524H2.14073C1.38035 19.3524 0.765625 18.7272 0.765625 17.9563V7.88428C0.765625 7.11335 1.38035 6.48817 2.14073 6.48817H5.88584C6.64621 6.48817 7.26094 7.11335 7.26094 7.88428Z" fill="white"/>
</svg>
