<svg width="32" height="28" viewBox="0 0 32 28" fill="none" xmlns="http://www.w3.org/2000/svg">
<path fill-rule="evenodd" clip-rule="evenodd" d="M10.0838 1.93935C10.5249 0.772241 11.6423 0 12.89 0H19.9723C21.22 0 22.3374 0.772244 22.7785 1.93935L24.0454 5.29127H29.0007C30.6576 5.29127 32.0007 6.63441 32.0007 8.29127V24.0692C32.0007 25.7261 30.6576 27.0692 29.0007 27.0692H3.86133C2.20447 27.0692 0.861328 25.7261 0.861328 24.0692V8.29126C0.861328 6.63441 2.20447 5.29127 3.86133 5.29127H8.81688L10.0838 1.93935ZM20.8837 16.0857C20.8837 18.5451 18.89 20.5388 16.4306 20.5388C13.9712 20.5388 11.9775 18.5451 11.9775 16.0857C11.9775 13.6263 13.9712 11.6326 16.4306 11.6326C18.89 11.6326 20.8837 13.6263 20.8837 16.0857ZM24.088 16.0857C24.088 20.3147 20.6597 23.7431 16.4306 23.7431C12.2015 23.7431 8.77321 20.3147 8.77321 16.0857C8.77321 11.8566 12.2015 8.4283 16.4306 8.4283C20.6597 8.4283 24.088 11.8566 24.088 16.0857Z" fill="#B8B8B8"/>
</svg>
