<?xml version="1.0" encoding="UTF-8" standalone="no"?>
<svg
   width="25"
   height="25"
   viewBox="0 0 25 25"
   fill="none"
   version="1.1"
   id="svg22"
   xmlns="http://www.w3.org/2000/svg"
   xmlns:svg="http://www.w3.org/2000/svg">
  <defs
     id="defs26" />
  <path
     d="m 12.499983,0.49999475 c -6.6172502,0 -11.9999658,5.38272095 -11.9999658,12.00001125 0,6.617299 5.3827156,11.999999 11.9999658,11.999999 6.6173,0 12,-5.3827 12,-11.999999 0,-6.6172903 -5.4321,-12.00001125 -12,-12.00001125 z m 2.963,7.20988095 c 0.8395,0 1.5309,0.6913501 1.5309,1.53086 0,0.8395103 -0.6914,1.5308703 -1.5309,1.5308703 -0.8395,0 -1.5309,-0.69136 -1.5309,-1.5308703 0.0494,-0.88889 0.6914,-1.53086 1.5309,-1.53086 z m -5.9753102,0 c 0.8395102,0 1.5309102,0.6913501 1.5309102,1.53086 0,0.8395103 -0.6914,1.5308703 -1.5309102,1.5308703 -0.83951,0 -1.53087,-0.69136 -1.53087,-1.5308703 0,-0.88889 0.69136,-1.53086 1.53087,-1.53086 z m 8.6420102,7.0123303 c -0.3951,2.765399 -2.8149,4.888899 -5.679,4.888899 -2.8642502,0 -5.2346202,-2.1235 -5.6790602,-4.888899 -0.04938,-0.4444 0.2963,-0.8889 0.74074,-0.8889 h 9.8765202 c 0.4939,0 0.8395,0.4445 0.7408,0.8889 z"
     fill="#b8b8b8"
     id="path20" />
</svg>
