<svg width="24" height="18" viewBox="0 0 24 18" fill="none" xmlns="http://www.w3.org/2000/svg">
<path d="M22.1532 3.81883L18.9453 3.81888" stroke="white" stroke-width="2" stroke-linecap="round" stroke-linejoin="round"/>
<path d="M9.18909 3.81883L1.96195 3.81877" stroke="white" stroke-width="2" stroke-linecap="round" stroke-linejoin="round"/>
<path fill-rule="evenodd" clip-rule="evenodd" d="M13.2448 3.81889C13.2448 2.33472 14.4479 1.13159 15.932 1.13159C17.4161 1.13159 18.6192 2.33472 18.6192 3.81889C18.6192 5.30305 17.4161 6.50618 15.932 6.50618C14.4479 6.50618 13.2448 5.30305 13.2448 3.81889Z" stroke="white" stroke-width="2" stroke-linecap="round" stroke-linejoin="round"/>
<path d="M1.84681 14.1382L5.0547 14.1381" stroke="white" stroke-width="2" stroke-linecap="round" stroke-linejoin="round"/>
<path d="M14.8109 14.1382L22.038 14.1383" stroke="white" stroke-width="2" stroke-linecap="round" stroke-linejoin="round"/>
<path fill-rule="evenodd" clip-rule="evenodd" d="M10.7552 14.1381C10.7552 15.6223 9.55212 16.8254 8.06796 16.8254C6.5839 16.8254 5.38078 15.6223 5.38078 14.1381C5.38078 12.654 6.5839 11.4509 8.06796 11.4509C9.55212 11.4509 10.7552 12.654 10.7552 14.1381Z" stroke="white" stroke-width="2" stroke-linecap="round" stroke-linejoin="round"/>
</svg>
