<svg width="16" height="15" viewBox="0 0 16 15" fill="none" xmlns="http://www.w3.org/2000/svg">
<path d="M8.49271 13.8127C8.10316 14.1989 7.48023 14.1983 7.09053 13.8123C5.68258 12.4176 2.54698 9.31062 1.37106 8.13817C0.493976 7.26455 -0.00632129 6.2193 0.00305928 4.9684C0.00609521 3.11752 1.26745 1.50011 3.07676 1.02706C4.62143 0.628133 5.99724 0.980674 7.15887 2.0785C7.3715 2.27951 7.56067 2.50526 7.79519 2.75574C8.01719 2.52072 8.19073 2.32744 8.37678 2.13725C9.34451 1.14406 10.747 0.689694 12.1214 0.924129C13.4957 1.15856 14.6633 2.05133 15.2387 3.30775C15.9516 4.84315 15.6749 6.30898 14.6711 7.65111C14.5666 7.78793 10.223 12.0973 8.49271 13.8127Z" fill="black"/>
</svg>
