<svg width="5" height="13" viewBox="0 0 5 13" fill="none" xmlns="http://www.w3.org/2000/svg">
    <path fill-rule="evenodd" clip-rule="evenodd" d="M2.42114 4.05615C3.38184 4.05615 4.16064 3.27735 4.16064 2.31665C4.16064 1.35595 3.38184 0.577148 2.42114 0.577148C1.46044 0.577148 0.681641 1.35595 0.681641 2.31665C0.681641 3.27735 1.46044 4.05615 2.42114 4.05615ZM3.91427 6.83368C3.84159 6.07303 3.20084 5.47814 2.42114 5.47814C1.59271 5.47814 0.921142 6.14972 0.921142 6.97814V11.4295L0.928008 11.5739C1.00069 12.3346 1.64145 12.9295 2.42114 12.9295C3.24957 12.9295 3.92114 12.2579 3.92114 11.4295V6.97814L3.91427 6.83368Z" fill="#232428"/>
</svg>

