<svg width="32" height="33" viewBox="0 0 32 33" fill="none" xmlns="http://www.w3.org/2000/svg">
    <ellipse cx="15.9914" cy="27.8015" rx="15.8268" ry="4.50294" fill="#C3D7FF"/>
    <path fill-rule="evenodd" clip-rule="evenodd" d="M16.0812 0.270508C15.834 0.270508 15.5885 0.277849 15.3448 0.291966C9.54546 0.629646 5.38182 5.11888 4.91802 10.231C4.70618 12.5704 5.41782 14.9026 6.75141 16.8739L13.4123 26.7186C14.3505 28.1054 16.4459 28.1726 17.4785 26.8485L24.7673 17.5046C27.9301 13.4491 27.9242 7.76216 24.4705 3.93022C22.617 1.87421 19.9569 0.474923 16.8177 0.291966C16.5739 0.277849 16.3285 0.270508 16.0812 0.270508Z" fill="white"/>
    <path fill-rule="evenodd" clip-rule="evenodd" d="M19.991 10.1648C19.991 12.3032 18.2001 14.0363 15.9916 14.0363C13.7826 14.0363 11.9917 12.3032 11.9917 10.1648C11.9917 8.02633 13.7826 6.29321 15.9916 6.29321C18.2001 6.29321 19.991 8.02633 19.991 10.1648Z" fill="#568EFF"/>
</svg>
