<svg width="11" height="13" viewBox="0 0 11 13" fill="none" xmlns="http://www.w3.org/2000/svg">
    <path fill-rule="evenodd" clip-rule="evenodd" d="M5.28927 0.349177C5.39456 0.342876 5.50061 0.3396 5.60743 0.3396C5.71425 0.3396 5.8203 0.342876 5.92559 0.349177C7.28187 0.430837 8.43113 1.05538 9.23189 1.97305C10.724 3.68337 10.7266 6.22164 9.36013 8.03177L6.21112 12.2022C5.76498 12.7933 4.8597 12.7633 4.45434 12.1443L1.5766 7.75024C1.00044 6.87038 0.69298 5.82947 0.784503 4.78528C0.984885 2.50359 2.78373 0.499895 5.28927 0.349177ZM5.56868 6.4836C6.52282 6.4836 7.29655 5.71005 7.29655 4.7556C7.29655 3.80115 6.52282 3.0276 5.56868 3.0276C4.61429 3.0276 3.84055 3.80115 3.84055 4.7556C3.84055 5.71005 4.61429 6.4836 5.56868 6.4836Z" fill="#C3D7FF"/>
</svg>
