<svg width="20" height="16" viewBox="0 0 20 16" fill="none" xmlns="http://www.w3.org/2000/svg">
    <path fill-rule="evenodd" clip-rule="evenodd" d="M3 0C1.34315 0 0 1.34314 0 3V12.1046C0 13.7615 1.34315 15.1046 3 15.1046H17C18.6569 15.1046 20 13.7615 20 12.1046V3C20 1.34315 18.6569 0 17 0H3ZM4.18543 2.70933C3.66035 2.4206 2.99014 2.56135 2.62932 3.05909C2.23844 3.59831 2.35869 4.3523 2.89791 4.74318L9.53244 9.55259L9.66738 9.63746C10.0843 9.86275 10.6015 9.82431 10.9827 9.52641L17.137 4.71701L17.2504 4.61646C17.6731 4.19171 17.7232 3.50871 17.3447 3.02432L17.2441 2.91092C16.8194 2.48823 16.1364 2.43814 15.652 2.81668L10.2132 7.06601L4.31341 2.7905L4.18543 2.70933Z" fill="white"/>
</svg>
