<svg width="59" height="59" viewBox="0 0 59 59" fill="none" xmlns="http://www.w3.org/2000/svg">
<path d="M23.1736 3.37264e-07C27.5789 -0.000751022 31.8932 1.25393 35.6111 3.61704C39.3289 5.98015 42.2963 9.35383 44.1657 13.3428C46.035 17.3318 46.7289 21.771 46.166 26.1402C45.6031 30.5093 43.8067 34.6276 40.9873 38.0126L58.3795 55.4006C58.7528 55.7722 58.9734 56.2702 58.9977 56.7964C59.0221 57.3226 58.8485 57.8389 58.5111 58.2434C58.1737 58.648 57.697 58.9115 57.175 58.982C56.653 59.0525 56.1235 58.925 55.6908 58.6245L55.3958 58.3843L38.0078 40.992C35.1472 43.3735 31.7551 45.0309 28.1184 45.8242C24.4818 46.6175 20.7076 46.5234 17.1151 45.5497C13.5225 44.576 10.2173 42.7514 7.479 40.2303C4.74069 37.7092 2.64981 34.5656 1.38322 31.0656C0.116635 27.5656 -0.288406 23.812 0.202357 20.1223C0.693119 16.4327 2.06525 12.9155 4.20269 9.86822C6.34014 6.82096 9.18002 4.33329 12.4821 2.61561C15.7843 0.897927 19.4515 0.000762768 23.1736 3.37264e-07ZM23.1736 4.21425C18.144 4.21425 13.3204 6.21225 9.76397 9.76872C6.20751 13.3252 4.20951 18.1488 4.20951 23.1784C4.20951 28.208 6.20751 33.0316 9.76397 36.5881C13.3204 40.1445 18.144 42.1425 23.1736 42.1425C28.2032 42.1425 33.0268 40.1445 36.5833 36.5881C40.1398 33.0316 42.1378 28.208 42.1378 23.1784C42.1378 18.1488 40.1398 13.3252 36.5833 9.76872C33.0268 6.21225 28.2032 4.21425 23.1736 4.21425ZM23.1736 21.0713C23.7325 21.0713 24.2684 21.2933 24.6636 21.6884C25.0588 22.0836 25.2808 22.6195 25.2808 23.1784V31.6069C25.2808 32.1657 25.0588 32.7017 24.6636 33.0969C24.2684 33.492 23.7325 33.714 23.1736 33.714C22.6148 33.714 22.0788 33.492 21.6837 33.0969C21.2885 32.7017 21.0665 32.1657 21.0665 31.6069V23.1784C21.0665 22.6195 21.2885 22.0836 21.6837 21.6884C22.0788 21.2933 22.6148 21.0713 23.1736 21.0713ZM25.2808 14.7499C25.2808 15.3087 25.0588 15.8447 24.6636 16.2398C24.2684 16.635 23.7325 16.857 23.1736 16.857C22.6148 16.857 22.0788 16.635 21.6837 16.2398C21.2885 15.8447 21.0665 15.3087 21.0665 14.7499C21.0665 14.191 21.2885 13.6551 21.6837 13.2599C22.0788 12.8648 22.6148 12.6428 23.1736 12.6428C23.7325 12.6428 24.2684 12.8648 24.6636 13.2599C25.0588 13.6551 25.2808 14.191 25.2808 14.7499Z" fill="#E5E5E5"/>
</svg>
