<svg width="28" height="28" viewBox="0 0 28 28" fill="none" xmlns="http://www.w3.org/2000/svg">
<g clip-path="url(#clip0_3666_5048)">
<path fill-rule="evenodd" clip-rule="evenodd" d="M16.0423 7.94119C18.303 10.202 18.303 13.8674 16.0423 16.1281C13.7815 18.3889 10.1161 18.3889 7.85532 16.1281C5.59455 13.8674 5.59455 10.202 7.85532 7.94119C10.1161 5.68042 13.7815 5.68042 16.0423 7.94119ZM20.1824 17.3331C22.6272 13.542 22.19 8.43206 18.8707 5.11276C15.0478 1.28989 8.84975 1.28989 5.02689 5.11276C1.20402 8.93562 1.20402 15.1337 5.02689 18.9566C8.34441 22.2741 13.4507 22.7126 17.2411 20.2722L21.1775 24.6387C21.9443 25.4893 23.2674 25.5235 24.0772 24.7137L24.6264 24.1645C25.4367 23.3542 25.4019 22.0301 24.5501 21.2636L20.1824 17.3331Z" fill="#C3D7FF"/>
</g>
<defs>
<clipPath id="clip0_3666_5048">
<rect width="28" height="28" fill="white"/>
</clipPath>
</defs>
</svg>
