<svg width="10" height="12" viewBox="0 0 10 12" fill="none" xmlns="http://www.w3.org/2000/svg">
<path fill-rule="evenodd" clip-rule="evenodd" d="M5.1052 0.190186C3.73107 0.190186 2.61724 1.30402 2.61724 2.67815C2.61724 4.05228 3.73107 5.16612 5.1052 5.16612C6.47934 5.16612 7.59317 4.05228 7.59317 2.67815C7.59317 1.30402 6.47934 0.190186 5.1052 0.190186ZM3.19314 6.28348H7.01725C8.22449 6.28348 9.2719 7.11667 9.54341 8.29278L9.66754 8.83081C9.92825 9.96001 9.07056 11.0381 7.91168 11.0381H2.29892C1.14004 11.0381 0.282348 9.96001 0.543059 8.83081L0.667188 8.29278C0.938693 7.11667 1.9861 6.28348 3.19314 6.28348Z" fill="#6CE3C7"/>
</svg>
